# xmcd
#
# Track frame offsets: 
#        150
#        11627
#        24949
#        37094
#        49475
#        62371
#        74725
#        87802
#        100736
#        111230
#        125259
#        139453
#        152180
#        166395
#        180353
#        193775
#        207549
#        222667
#        232482
#        244543
#        255076
#        266573
#        278078
#        291184
#        303934
#        315760
#        326489
#        337645
#
# Disc length: 4668 seconds
#
# Revision: 1
# Processed by: cddbd v1.5.2PL0 Copyright (c) Steve Scherf et al.
# Submitted via: ExactAudioCopyFreeDBPlugin 1.0
#
DISCID=97123a1c
DTITLE=Various Artist - Voodoo Voodoo: Feisty Fifties Females (Disc1)
DYEAR=2014
DGENRE=R&B
TTITLE0=Ella Johnson - Bring It Home To Me
TTITLE1=Ella Mae Morse - Teardrops From My Eyes
TTITLE2=LaVern Baker - Pig Latin Blues
TTITLE3=Terry Timmons - He's The Best In The Business
TTITLE4=Dinah Washington - Don't Hold It Against Me
TTITLE5=Joan Shaw - You Drive Me Crazy
TTITLE6=Little Sylvia - Ain't Gonna Do It
TTITLE7=Mabel Scott - Mr Fine
TTITLE8=Gloria Smith - Low Down Man
TTITLE9=Jane Turner - Danger Blues
TTITLE10=Georgia Lane - Oo-Wee, Mr Jeff (Please Be Yourself)
TTITLE11=Varetta Dillard - Mercy, Mr Percy
TTITLE12=Thelma Cooper - Ooh, Daddy!
TTITLE13=Ella Johnson - No More Love
TTITLE14=Big Maybelle - I've Got A Feelin'
TTITLE15=Bettye Jean Washington - Bettye Jean's Blues
TTITLE16=Helen Humes - You Played On My Piano
TTITLE17=Annisteen Allen - My Brand Of Lovin'
TTITLE18=Sadie Madison - Let-Down Blues
TTITLE19=Jeanne Gayle - Bim Bam Baby
TTITLE20=Ruth Brown - Sweet Baby Of Mine
TTITLE21=Faye Adams - I've Gotta Leave You
TTITLE22=Etta James - Market Place
TTITLE23=Little Esther - Talkin' All Out Of My Head
TTITLE24=Margie Day - Just Couldn't Keep It To Myself
TTITLE25=Mickey Champion - Bam-A-Lam
TTITLE26=Kitty Noble - Till The Cows Come Home
TTITLE27=Kay Starr - Night Train
EXTD=
EXTT0=
EXTT1=
EXTT2=
EXTT3=
EXTT4=
EXTT5=
EXTT6=
EXTT7=
EXTT8=
EXTT9=
EXTT10=
EXTT11=
EXTT12=
EXTT13=
EXTT14=
EXTT15=
EXTT16=
EXTT17=
EXTT18=
EXTT19=
EXTT20=
EXTT21=
EXTT22=
EXTT23=
EXTT24=
EXTT25=
EXTT26=
EXTT27=
PLAYORDER=
